<?xml version="1.0" encoding="utf-8"?>
<!-- Generator: Adobe Illustrator 18.1.0, SVG Export Plug-In . SVG Version: 6.00 Build 0)  -->
<!DOCTYPE svg PUBLIC "-//W3C//DTD SVG 1.1//EN" "http://www.w3.org/Graphics/SVG/1.1/DTD/svg11.dtd">
<svg version="1.1" id="Layer_1" xmlns="http://www.w3.org/2000/svg" xmlns:xlink="http://www.w3.org/1999/xlink" x="0px" y="0px"
	 width="13px" height="12px" viewBox="0 0 13 12" enable-background="new 0 0 13 12" xml:space="preserve">
<path fill="#2390F7" d="M12.7,5.2L9.5,2.1C9.3,1.9,9,1.8,8.8,1.8S8.2,1.9,7.9,2.1S7.6,2.6,7.6,3c0,0.3,0.1,0.6,0.3,0.9L9.1,5H4v2
	h5.2L7.9,8.3C7.6,8.5,7.6,8.8,7.6,9.1s0.1,0.6,0.3,0.9s0.5,0.3,0.8,0.3s0.6-0.1,0.8-0.3l3.1-3.1C12.9,6.6,13,6.4,13,6
	C13,5.8,12.9,5.4,12.7,5.2z"/>
<polygon fill="#2390F7" points="6,2 6,0 0,0 0,2 0,10 0,12 6,12 6,10 2,10 2,2 "/>
</svg>
