<?xml version="1.0" encoding="UTF-8" standalone="no"?>
<svg width="50px" height="50px" viewBox="0 0 50 50" version="1.1" xmlns="http://www.w3.org/2000/svg">
    <!-- Generator: Sketch 44.1 (41455) - http://www.bohemiancoding.com/sketch -->
    <title>危险主机</title>
    <desc>Created with Sketch.</desc>
    <defs></defs>
    <g id="Symbols" stroke="none" stroke-width="1" fill="none" fill-rule="evenodd">
        <g id="危险主机">
            <g id="ic_bug">
                <rect id="Rectangle-Copy-2" fill="#E74D3F" x="0" y="0" width="50" height="50" rx="25"></rect>
                <g id="报警主机" transform="translate(14.000000, 12.000000)" fill-rule="nonzero" fill="#FFFFFF">
                    <path d="M4.62802582,2.80811905 C4.39635696,2.4096071 4.54292301,1.95548885 4.91642996,1.72842971 C5.06299601,1.64502024 5.23320173,1.61721706 5.37976777,1.61721706 C5.63980428,1.64502024 5.87147314,1.78866988 6.01803919,2.01572902 L7.08655284,3.80439887 L5.66817192,4.59678896 L4.62802582,2.80811905 L4.62802582,2.80811905 Z M18.3721845,2.80811905 C18.6038062,2.4096071 18.4572874,1.92768567 18.0554128,1.72842971 C17.6488103,1.50137057 17.1571049,1.67282339 16.925436,2.01109517 L16.925436,2.01109517 L15.88529,3.79976508 L17.3036709,4.59215509 L18.3721845,2.80811905 L18.3721845,2.80811905 Z M12.2967862,0.792390035 C12.2967862,0.338271755 11.9185512,0 11.4882617,0 C11.0249239,0 10.651417,0.338271755 10.651417,0.792390035 L10.651417,2.86372538 L12.3014668,2.86372538 L12.3014668,0.792390035 L12.2967862,0.792390035 L12.2967862,0.792390035 Z M22.858949,6.40862814 C22.712383,6.181569 22.4807141,6.03791933 22.2206776,6.01011619 C22.0741116,6.01011619 21.9039531,6.01011619 21.7573398,6.09352566 L19.9323563,7.14077801 L20.7408335,8.5309359 L22.5941846,7.48368361 C22.9440992,7.28906149 23.090618,6.80714007 22.858949,6.40862814 L22.858949,6.40862814 Z M20.5218997,23.8677238 L19.9299927,23.8677238 C19.9826067,23.7903302 20.0089137,23.682899 20.0089137,23.5797649 L20.0089137,22.7890702 C20.0089137,22.4195064 19.7151523,22.1316334 19.3380857,22.1316334 L18.8294403,22.1316334 L4.25975907,22.1316334 L3.72485055,22.1316334 C3.34778384,22.1316334 3.05402259,22.4195064 3.05402259,22.7890702 L3.05402259,23.5797649 C3.05402259,23.682899 3.08032958,23.7903302 3.1329435,23.8677238 L2.54103648,23.8677238 C2.16396978,23.8677238 1.87020856,24.1555968 1.87020856,24.5251606 L1.87020856,25.3158553 C1.87020856,25.685419 2.16396978,25.973378 2.54103648,25.973378 L20.5481628,25.973378 C20.9252734,25.973378 21.2189908,25.685419 21.2189908,25.3158553 L21.2189908,24.5251606 C21.1926838,24.1856346 20.8989225,23.8677238 20.5218997,23.8677238 L20.5218997,23.8677238 Z M19.0955116,20.6160424 L3.9046516,20.6160424 L3.9046516,13.1323587 L3.9046516,13.0211461 L3.9046516,12.7616499 C3.9046516,8.6514163 7.31822173,5.33357265 11.5166294,5.33357265 L11.5166294,5.33357265 C15.7103563,5.33357265 19.1286071,8.6514163 19.1286071,12.7616499 L19.1286071,12.9887554 L19.1286071,13.0998754 L19.1286071,20.6160424 L19.0955116,20.6160424 L19.0955116,20.6160424 Z M10.3866525,14.0961552 C10.3866525,11.9692599 8.6231322,10.2408302 6.45300932,10.2408302 L6.45300932,17.98401 C8.6231322,17.9793761 10.3866525,16.2509 10.3866525,14.0961552 L10.3866525,14.0961552 Z M16.5187862,10.2361963 C14.3486633,10.2361963 12.585143,11.9646261 12.585143,14.0915677 C12.585143,16.2185094 14.3486633,17.9469855 16.5187862,17.9469855 L16.5187862,10.2361963 L16.5187862,10.2361963 Z M3.0678068,7.173215 L1.21445568,6.12596265 C1.12935284,6.07035639 1.01115443,6.04255318 0.926051563,6.04255318 C0.609279832,6.01475006 0.287780151,6.15376586 0.117574439,6.44106514 C-0.114094481,6.83957706 0.00410395427,7.29369534 0.405978556,7.52075448 L2.25932967,8.56800677 L3.0678068,7.173215 L3.0678068,7.173215 Z" id="Shape"></path>
                </g>
            </g>
        </g>
    </g>
</svg>