<?xml version="1.0" encoding="UTF-8" standalone="no"?>
<svg width="50px" height="50px" viewBox="0 0 50 50" version="1.1" xmlns="http://www.w3.org/2000/svg">
    <!-- Generator: Sketch 44.1 (41455) - http://www.bohemiancoding.com/sketch -->
    <title>即将到期</title>
    <desc>Created with Sketch.</desc>
    <defs></defs>
    <g id="Symbols" stroke="none" stroke-width="1" fill="none" fill-rule="evenodd">
        <g id="即将到期">
            <g id="智慧平台">
                <rect id="Rectangle-Copy-5" fill="#FF7D2D" x="0" y="0" width="50" height="50" rx="25"></rect>
                <g id="即将到期" transform="translate(12.000000, 12.000000)" fill-rule="nonzero" fill="#FFFFFF">
                    <path d="M20.0454525,26.9941477 C16.2045295,26.9941477 13.0909049,23.9726778 13.0909049,20.245591 C13.0909049,16.5185043 16.204557,13.4970343 20.0454525,13.4970343 C23.886348,13.4970343 27,16.5185043 27,20.245591 C27,23.9726778 23.8863754,26.9941477 20.0454525,26.9941477 L20.0454525,26.9941477 Z M20.0452878,14.6879654 C16.8822231,14.6879654 14.3180666,17.1761433 14.3180666,20.245512 C14.3180666,23.3148807 16.8822232,25.8031376 20.0452878,25.8031376 C23.2084347,25.8031376 25.7726462,23.3148806 25.7726462,20.245512 C25.7726462,17.1761433 23.2084347,14.6879654 20.0452878,14.6879654 Z M21.6732679,21.0395715 L20.0540173,21.0395715 C20.0525075,21.0395715 20.0512996,21.0387279 20.0497624,21.0387279 C20.0482251,21.0387279 20.0469623,21.0395715 20.045425,21.0395715 C19.5935469,21.0395715 19.2272623,20.6877516 19.2272623,20.2538422 L19.2272623,16.6645467 C19.2272623,16.23069 19.5935469,15.8788701 20.045425,15.8788701 C20.4973031,15.8788701 20.8635877,16.23069 20.8635877,16.6645467 L20.8635877,19.451637 L21.6732405,19.451637 C22.1298403,19.451637 22.499968,19.8071475 22.499968,20.2456174 C22.499968,20.6840873 22.1298677,21.0395715 21.6732679,21.0395715 L21.6732679,21.0395715 Z M11.8636335,20.245591 C11.8636335,22.4105776 12.7591269,24.3709202 14.2071902,25.8032167 L2.40233031,25.8032167 C1.07551991,25.8032167 0,24.7703225 0,23.4962738 L0,3.89482467 C0,2.62077596 1.07551993,1.58788176 2.40233031,1.58788173 L4.09092322,1.58788173 L4.09092322,4.38733557 C4.09092322,5.47213546 5.00667577,6.35152696 6.1364123,6.35152696 C7.26606645,6.35152696 8.18181901,5.47213546 8.18181901,4.38733557 L8.18181901,1.58788173 L12.2727423,1.58788173 L12.2727423,4.38733557 C12.2727423,5.47213546 13.1884948,6.35152696 14.3182313,6.35152696 C15.4478855,6.35152696 16.363638,5.47213546 16.363638,4.38733557 L16.363638,1.58788173 L18.4612574,1.58788173 C19.7880678,1.58788173 20.8635877,2.62077594 20.8635877,3.89482467 L20.8635877,12.3462781 C20.5944538,12.3202857 20.3216963,12.3061296 20.045425,12.3061296 C15.5267809,12.3061296 11.8636334,15.8607335 11.8636335,20.245591 Z M5.73586836,20.6425417 L8.58230806,20.6425417 C9.0389902,20.6425417 9.40911794,20.2871103 9.40911794,19.8486404 C9.40911794,19.4100914 9.0389902,19.05466 8.58230806,19.05466 L5.73586836,19.05466 C5.27926856,19.05466 4.90905848,19.4100914 4.90905848,19.8486404 C4.90908593,20.2871103 5.27926859,20.6425417 5.73586836,20.6425417 Z M5.73586836,15.0849161 L11.4459324,15.0849161 C11.9026145,15.0849161 12.2727423,14.7294847 12.2727423,14.2910148 C12.2727423,13.8525448 11.9026145,13.4970344 11.4459324,13.4970343 L5.73586836,13.4970343 C5.27926856,13.4970343 4.90905848,13.8525448 4.90905848,14.2910148 C4.90908593,14.7294847 5.27926859,15.0849161 5.73586836,15.0849161 Z M15.1277468,8.33643845 L5.32675957,8.33643845 C4.87015977,8.33643845 4.49994969,8.69186982 4.49994966,9.13033978 C4.49994966,9.5688888 4.87015977,9.92432018 5.32675957,9.92432018 L15.1277468,9.92432018 C15.5843466,9.92432018 15.9545567,9.5688888 15.9545567,9.13033978 C15.9545567,8.69184348 15.5843466,8.33643845 15.1277468,8.33643845 Z M14.3182313,4.36674728 C13.8663532,4.36674728 13.5000137,4.01492742 13.5000137,3.58101799 L13.5000137,0.78567656 C13.5000137,0.351740786 13.8663806,0 14.3182313,0 C14.7700271,0 15.136394,0.351740786 15.136394,0.78567656 L15.136394,3.58099165 C15.136394,4.01492742 14.7700271,4.36674728 14.3182313,4.36674728 L14.3182313,4.36674728 Z M6.1364123,4.36674728 C5.68453416,4.36674728 5.31819472,4.01492742 5.31819472,3.58101799 L5.31819472,0.78567656 C5.31819472,0.351740786 5.68456162,0 6.1364123,0 C6.58820809,0 6.95457499,0.351740786 6.95457499,0.78567656 L6.95457499,3.58099165 C6.95457499,4.01492742 6.58820809,4.36674728 6.1364123,4.36674728 L6.1364123,4.36674728 Z" id="Shape"></path>
                </g>
            </g>
        </g>
    </g>
</svg>