<?xml version="1.0" encoding="utf-8"?>
<!-- Generator: Adobe Illustrator 18.1.0, SVG Export Plug-In . SVG Version: 6.00 Build 0)  -->
<!DOCTYPE svg PUBLIC "-//W3C//DTD SVG 1.1//EN" "http://www.w3.org/Graphics/SVG/1.1/DTD/svg11.dtd">
<svg version="1.1" id="Layer_1" xmlns="http://www.w3.org/2000/svg" xmlns:xlink="http://www.w3.org/1999/xlink" x="0px" y="0px"
	 width="18px" height="18px" viewBox="0 0 18 18" enable-background="new 0 0 18 18" xml:space="preserve">
<g>
	<g opacity="0.25">
		<path d="M9,0C4.6,0,1,3.6,1,8s3.6,8,8,8s8-3.6,8-8S13.4,0,9,0z M12.7,7.8l-2.9,2.9C9.6,10.9,9.3,11,9,11c-0.3,0-0.6-0.1-0.8-0.3
			L5.3,7.8C5.1,7.6,5,7.3,5,7.1c0-0.3,0.1-0.5,0.3-0.8C5.5,6.1,5.8,6,6.1,6c0.3,0,0.6,0.1,0.8,0.3L9,8.4l2.1-2.1
			C11.4,6.1,11.6,6,11.9,6c0.3,0,0.6,0.1,0.8,0.3C12.9,6.5,13,6.8,13,7.1S12.9,7.6,12.7,7.8z"/>
	</g>
	<g>
		<path fill="#FFFFFF" d="M9,1C4.6,1,1,4.6,1,9s3.6,8,8,8s8-3.6,8-8S13.4,1,9,1z M12.7,8.8l-2.9,2.9C9.6,11.9,9.3,12,9,12
			c-0.3,0-0.6-0.1-0.8-0.3L5.3,8.8C5.1,8.6,5,8.3,5,8.1c0-0.3,0.1-0.5,0.3-0.8C5.5,7.1,5.8,7,6.1,7c0.3,0,0.6,0.1,0.8,0.3L9,9.4
			l2.1-2.1C11.4,7.1,11.6,7,11.9,7c0.3,0,0.6,0.1,0.8,0.3C12.9,7.5,13,7.8,13,8.1S12.9,8.6,12.7,8.8z"/>
	</g>
</g>
</svg>
