<?xml version="1.0" encoding="UTF-8" standalone="no"?>
<svg width="51px" height="51px" viewBox="0 0 51 51" version="1.1" xmlns="http://www.w3.org/2000/svg">
    <!-- Generator: Sketch 44.1 (41455) - http://www.bohemiancoding.com/sketch -->
    <title>物理机数量</title>
    <desc>Created with Sketch.</desc>
    <defs></defs>
    <g id="Symbols" stroke="none" stroke-width="1" fill="none" fill-rule="evenodd">
        <g id="物理机数量">
            <g id="ic_基金">
                <g id="基金" transform="translate(0.604167, 0.187500)"></g>
                <rect id="Rectangle-Copy-3" fill="#1A9045" x="1" y="1" width="49.1730477" height="49.1730477" rx="24.5865239"></rect>
                <polygon id="Shape" points="12.4108203 12.2502633 39 12.2502633 39 38.839443 12.4108203 38.839443"></polygon>
                <g id="专属服务器DCC" transform="translate(13.000000, 14.000000)" fill-rule="nonzero" fill="#FFFFFF">
                    <path d="M26,1.6 C26,0.64 25.35,0 24.375,0 L1.625,0 C0.65,0 0,0.64 0,1.6 L0,6.4 C0,7.36 0.65,8 1.625,8 L24.375,8 C25.35,8 26,7.36 26,6.4 L26,1.6 Z M8.125,6.4 L3.25,6.4 L3.25,1.6 L8.125,1.6 L8.125,6.4 Z" id="Shape"></path>
                    <path d="M26,11.2 C26,10.24 25.35,9.6 24.375,9.6 L1.625,9.6 C0.65,9.6 0,10.24 0,11.2 L0,16 C0,16.96 0.65,17.6 1.625,17.6 L24.375,17.6 C25.35,17.6 26,16.96 26,16 L26,11.2 Z M8.125,16 L3.25,16 L3.25,11.2 L8.125,11.2 L8.125,16 Z" id="Shape"></path>
                    <polygon id="Shape" points="3.25 22.4 10.5625 22.4 10.5625 24 3.25 24"></polygon>
                    <polygon id="Shape" points="15.4375 22.4 22.75 22.4 22.75 24 15.4375 24"></polygon>
                    <polygon id="Shape" points="12.1875 17.6 13.8125 17.6 13.8125 20.8 12.1875 20.8"></polygon>
                    <polygon id="Shape" points="10.5625 20.8 15.4375 20.8 15.4375 24 10.5625 24"></polygon>
                </g>
            </g>
        </g>
    </g>
</svg>