<?xml version="1.0" encoding="UTF-8" standalone="no"?>
<svg width="41px" height="41px" viewBox="0 0 41 41" version="1.1" xmlns="http://www.w3.org/2000/svg" xmlns:xlink="http://www.w3.org/1999/xlink">
    <!-- Generator: Sketch 44.1 (41455) - http://www.bohemiancoding.com/sketch -->
    <title>我的-用户默认头像</title>
    <desc>Created with Sketch.</desc>
    <defs></defs>
    <g id="Page-1" stroke="none" stroke-width="1" fill="none" fill-rule="evenodd">
        <g id="默认仪表盘" transform="translate(-1292.000000, -10.000000)">
            <g id="用户中心" transform="translate(1280.000000, 0.000000)">
                <g id="我的-用户默认头像" transform="translate(12.000000, 10.000000)">
                    <path d="M0.435555547,20 C0.435555547,30.8051443 9.19485569,39.5644445 20,39.5644445 C30.8051443,39.5644445 39.5644445,30.8051443 39.5644445,20 C39.5644445,9.19485569 30.8051443,0.435555547 20,0.435555547 C9.19485569,0.435555547 0.435555547,9.19485569 0.435555547,20 Z" id="Shape" fill="#FFFFFF" fill-rule="nonzero"></path>
                    <path d="M20,40 C8.954305,40 1.3527075e-15,31.045695 0,20 C-1.3527075e-15,8.954305 8.954305,2.02906125e-15 20,0 C31.045695,-2.02906125e-15 40,8.954305 40,20 C39.987753,31.0406182 31.0406182,39.987753 20,40 Z M20,0.868888906 C9.4341791,0.868888906 0.868888906,9.4341791 0.868888906,20 C0.868888906,30.5658209 9.4341791,39.1311111 20,39.1311111 C30.5658209,39.1311111 39.1311111,30.5658209 39.1311111,20 C39.1200875,9.43874861 30.5612514,0.879912547 20,0.868888906 Z" id="Shape" fill="#FFFFFF" fill-rule="nonzero"></path>
                    <path d="M23.26,23.4777778 C23.26,23.4777778 22.5155555,28.5288889 25.6511111,29.7822222 C28.2,30.8 31.8622222,31.6466667 33.1911111,33.7577778 C31.7377778,35.1111111 27.2666666,39.1311111 20,39.1311111 C12.7333334,39.1311111 8.08888891,34.9222222 6.80888891,33.7422222 C7.08918977,33.3772586 7.43417955,33.0669184 7.82666668,32.8266667 C9.47555559,31.8266667 12.0933334,30.68 14.5666667,29.7822222 C17.04,28.8844445 17.3177778,27.0644445 17.1755555,23.6955555 L23.26,23.4777778 Z" id="Shape" fill="#EDE7E6" fill-rule="nonzero"></path>
                    <path d="M14.5644445,29.5555555 C14.5644445,29.5555555 16.6022222,32.8266666 20,32.8266667 C22.86,32.8266667 25.8688889,30.4377778 25.8688889,29.7822222 C25.8688889,29.7822222 30.9333334,31.56 32.6088889,33.0422222 C32.8270044,33.2335381 33.0210236,33.4506904 33.1866667,33.6888889 C32.4111111,34.5022222 28.36,39.1288889 20,39.1288889 C11.8288889,39.1288889 7.40888891,34.6244445 6.77777777,33.72 C6.89440203,33.5535202 7.02687197,33.3987239 7.17333332,33.2577778 C8.32,32.1644445 10.9955555,30.6666667 14.5644445,29.5555555 L14.5644445,29.5555555 Z" id="Shape" fill="#76A3E2" fill-rule="nonzero"></path>
                    <path d="M14.3488889,29.5555555 C15.2111111,30.62 17.4733334,32.8155555 20.4355555,32.8155555 C22.6333333,32.8155555 24.78,31.0066666 25.9777778,29.7844445 C26.5377778,30.0244445 26.9333333,30.2044445 27.3933333,30.4 C25.9977778,32.0888889 23.24,34.4 20.5044445,34.4 C16.9777778,34.4 14.06,31.8488889 13.1288889,29.9866667 C13.5272394,29.8204322 13.9345363,29.6765057 14.3488889,29.5555555 L14.3488889,29.5555555 Z" id="Shape" fill="#4C73A9" fill-rule="nonzero"></path>
                    <path d="M26.4044445,21.1355555 C26.4044445,21.1355555 26.5133334,21.8911111 26.9355555,21.9333333 C27.3577777,21.9755555 29.8688889,18.2666666 27.7311111,16.8888889 C27.7311111,16.8888889 27.0644444,16.48 26.6711111,17.1555555 C26.6666666,17.1511111 27.22,20.4577778 26.4044445,21.1355555 L26.4044445,21.1355555 Z" id="Shape" fill="#EFE7E6" fill-rule="nonzero"></path>
                    <path d="M14.8755555,21.1555555 C14.8755555,21.1555555 14.7711111,21.8933333 14.36,21.9355555 C13.9488889,21.9777778 11.3955555,17.8733333 13.4711111,16.5244445 C13.9417588,16.5906209 14.3590647,16.8615038 14.6111111,17.2644445 C14.6111111,17.2644445 14.0822222,20.4911111 14.8755555,21.1555555 Z" id="Shape" fill="#EFE7E6" fill-rule="nonzero"></path>
                    <path d="M16.9488889,25.6511111 C16.9488889,25.6511111 21.1933334,30.8022222 25.1711111,30.1666667 C23.86,28.7844445 24.1111111,25.12 24.1111111,25.12 L16.9488889,25.6511111 Z" id="Shape" fill="#E3DCDB" fill-rule="nonzero"></path>
                    <path d="M20.6666667,27.7777778 C23.5555556,27.7777778 27.3933334,24.4266667 27.3933333,17.8266667 C27.3933333,12.1755556 23.46,9.71555559 21.1977778,9.71555555 C18.9355555,9.71555551 16.4222222,10.0266666 14.5622222,14.7622222 C11.9066667,21.5333333 16.3488889,27.7777778 20.6666667,27.7777778 Z" id="Shape" fill="#F7EDEB" fill-rule="nonzero"></path>
                    <path d="M18.26,11.3044445 C18.26,11.3044445 20.0911111,12.9133334 23.8488889,14.2222222 C26.7977778,15.2577778 26.7666667,17.94 26.7666667,17.94 L27.2955555,16.8888889 C27.2955555,16.8888889 28.38,16.5222222 28.4777778,18.6977778 C28.4777778,18.6977778 29.5066667,15.7422222 28.6244445,12.64 C27.7422222,9.53777777 25.1933334,7.88444445 22.8266667,7.39333332 C20.2466667,6.86 17.4933334,7.00444441 15.36,8.65333332 C13.2266666,10.3022222 12.1533333,13.1511111 12.4444445,16.62 C12.7355556,20.0888889 12.8288889,18.9133333 12.8288889,18.9133333 C12.8288889,18.9133333 12.4333333,16.5288889 13.7777778,16.6222222 C14.2977778,16.6577778 14.3088889,17.9555555 14.3088889,17.9555555 C14.3088889,17.9555555 14.5911111,12.8888889 18.26,11.3044445 Z" id="Shape" fill="#4C73A9" fill-rule="nonzero"></path>
                    <circle id="Oval" stroke="#FFFFFF" fill="#29C34D" cx="35" cy="35" r="5"></circle>
                </g>
            </g>
        </g>
    </g>
</svg>