<?xml version="1.0" encoding="UTF-8" standalone="no"?>
<svg width="20px" height="20px" viewBox="0 0 20 20" version="1.1" xmlns="http://www.w3.org/2000/svg" xmlns:xlink="http://www.w3.org/1999/xlink">
    <!-- Generator: Sketch 44.1 (41455) - http://www.bohemiancoding.com/sketch -->
    <title>对勾</title>
    <desc>Created with Sketch.</desc>
    <defs></defs>
    <g id="Page-1" stroke="none" stroke-width="1" fill="none" fill-rule="evenodd">
        <g id="登录-无验证-标注-copy" transform="translate(-937.000000, -483.000000)" fill-rule="nonzero" fill="#0D6FD1">
            <g id="Group-3" transform="translate(471.000000, 313.000000)">
                <g id="对勾" transform="translate(465.000000, 169.000000)">
                    <path d="M11,1 C5.48,1 1,5.48 1,11 C1,16.52 5.48,21 11,21 C16.52,21 21,16.52 21,11 C21,5.48 16.52,1 11,1 Z M17.71,8.71 L10.71,15.71 C10.32,16.1 9.69,16.1 9.3,15.71 L5.3,11.71 C4.93,11.32 4.93,10.71 5.3,10.32 C5.68,9.92 6.32,9.91 6.71,10.3 L10,13.59 L16.29,7.3 C16.68,6.93 17.29,6.93 17.68,7.3 C18.08,7.68 18.09,8.31 17.71,8.71 L17.71,8.71 Z" id="Shape"></path>
                </g>
            </g>
        </g>
    </g>
</svg>