<?xml version="1.0" encoding="UTF-8" standalone="no"?>
<svg width="20px" height="16px" viewBox="0 0 20 16" version="1.1" xmlns="http://www.w3.org/2000/svg" xmlns:xlink="http://www.w3.org/1999/xlink">
    <!-- Generator: Sketch 44.1 (41455) - http://www.bohemiancoding.com/sketch -->
    <title>邮箱 blue copy</title>
    <desc>Created with Sketch.</desc>
    <defs></defs>
    <g id="Page-1" stroke="none" stroke-width="1" fill="none" fill-rule="evenodd" opacity="0.75">
        <g id="登录-无验证-标注-copy" transform="translate(-498.000000, -484.000000)" fill-rule="nonzero" fill="#2C3C4E">
            <g id="Group-3" transform="translate(471.000000, 313.000000)">
                <g id="Content-Copy" transform="translate(0.000000, 159.000000)">
                    <g id="邮箱-blue-copy" transform="translate(26.000000, 9.000000)">
                        <path d="M18.9398117,19 L2.85584259,19 C1.83265471,19 1,18.1026667 1,17 L1,5 C1,3.89733333 1.83265471,3 2.85584259,3 L18.9398117,3 C19.9629996,3 20.7956543,3.89733333 20.7956543,5 L20.7956543,17 C20.7956543,18.1026667 19.9629996,19 18.9398117,19 Z M2.85584259,4.33333333 C2.5141914,4.33333333 2.23722839,4.63181017 2.23722839,5 L2.23722839,17 C2.23722839,17.3681898 2.5141914,17.6666667 2.85584259,17.6666667 L18.9398117,17.6666667 C19.2800495,17.6666667 19.5584259,17.3666667 19.5584259,17 L19.5584259,5 C19.5584259,4.63181017 19.2814629,4.33333333 18.9398117,4.33333333 L2.85584259,4.33333333 Z" id="Shape"></path>
                        <path d="M10.8198595,11.7881718 C10.6978519,11.7882295 10.5785752,11.7492493 10.4771472,11.6761718 L4.29100524,7.23217183 C4.09986257,7.10356589 3.98872884,6.87312436 4.00090736,6.63063893 C4.01308589,6.3881535 4.14665005,6.17198502 4.34955648,6.06636369 C4.55246292,5.96074236 4.79261211,5.98237732 4.97642977,6.12283849 L10.8198595,10.3201718 L16.6632892,6.12283849 C16.9471036,5.93188047 17.3203689,6.01871959 17.5058098,6.31884855 C17.6912507,6.61897751 17.6216518,7.02361078 17.3487137,7.23217183 L11.1625717,11.6761718 C11.0614064,11.7498456 10.941956,11.7888825 10.8198595,11.7881718 Z" id="Shape"></path>
                    </g>
                </g>
            </g>
        </g>
    </g>
</svg>