<?xml version="1.0" encoding="UTF-8" standalone="no"?>
<svg width="22px" height="22px" viewBox="0 0 22 22" version="1.1" xmlns="http://www.w3.org/2000/svg" xmlns:xlink="http://www.w3.org/1999/xlink">
    <!-- Generator: Sketch 44.1 (41455) - http://www.bohemiancoding.com/sketch -->
    <title>提示</title>
    <desc>Created with Sketch.</desc>
    <defs></defs>
    <g id="Page-1" stroke="none" stroke-width="1" fill="none" fill-rule="evenodd">
        <g id="4登录-错误" transform="translate(-936.000000, -481.000000)" fill-rule="nonzero" fill="#FF521B">
            <g id="Group-3" transform="translate(471.000000, 317.000000)">
                <g id="提示" transform="translate(465.000000, 164.000000)">
                    <path d="M10.993404,1.00632866e-15 C4.92284629,1.00632866e-15 0,4.79661946 0,10.7115218 C0,16.6285664 4.92284629,21.4230436 10.993404,21.4230436 C17.0661603,21.4230436 21.9868079,16.6285664 21.9868079,10.7115218 C21.9868079,4.79661946 17.0661603,0 10.993404,1.00632866e-15 Z M9.89406354,4.55239676 C9.89406354,3.96112075 10.386568,3.48124459 10.993404,3.48124457 C11.6002399,3.48124455 12.0927443,3.96112075 12.0927443,4.55239676 L12.0927443,13.1216142 C12.0927443,13.7128902 11.6002398,14.1927664 10.993404,14.1927664 C10.3865681,14.1927664 9.89406357,13.7128902 9.89406354,13.1216142 L9.89406354,4.55239676 L9.89406354,4.55239676 Z M10.993404,18.2759985 C10.2348591,18.2759985 9.61922846,17.6761533 9.61922846,16.9370583 C9.61922846,16.1979633 10.2348591,15.598118 10.993404,15.598118 C11.7519488,15.598118 12.3675794,16.1979633 12.3675794,16.9370583 C12.3675794,17.6782956 11.7519488,18.2759985 10.993404,18.2759985 L10.993404,18.2759985 Z" id="Shape"></path>
                </g>
            </g>
        </g>
    </g>
</svg>