<?xml version="1.0" encoding="UTF-8" standalone="no"?>
<svg width="16px" height="19px" viewBox="0 0 16 19" version="1.1" xmlns="http://www.w3.org/2000/svg" xmlns:xlink="http://www.w3.org/1999/xlink">
    <!-- Generator: Sketch 44.1 (41455) - http://www.bohemiancoding.com/sketch -->
    <title>password-pre</title>
    <desc>Created with Sketch.</desc>
    <defs></defs>
    <g id="Page-1" stroke="none" stroke-width="1" fill="none" fill-rule="evenodd">
        <g id="登录-无验证-标注-copy" transform="translate(-500.000000, -538.000000)" fill-rule="nonzero" fill="#1272D2">
            <g id="Group-3" transform="translate(471.000000, 313.000000)">
                <g id="Content-Copy" transform="translate(0.000000, 159.000000)">
                    <g id="password-pre" transform="translate(26.000000, 65.000000)">
                        <path d="M18.0419904,7.72709534 L16.1642365,7.72709534 L16.1642365,6.19681596 C16.1642085,3.33948559 13.8439772,1.01488545 10.9919825,1.01488545 C8.13998774,1.01488545 5.81972842,3.33948559 5.81972842,6.19681596 L5.81972842,7.72709534 L3.9419746,7.72709534 C3.42394744,7.72709534 3.002523,8.1493082 3.002523,8.66827642 L3.002523,19.0453939 C3.002523,19.5643902 3.42394744,19.9866031 3.9419746,19.9866031 L18.0419904,19.9866031 C18.5600175,19.9866031 18.981442,19.5643902 18.981442,19.0453939 L18.981442,8.66827642 C18.981442,8.1493082 18.5599895,7.72709534 18.0419904,7.72709534 Z M7.25007096,6.19681596 C7.25007096,4.12967775 8.92867631,2.44793201 10.9919544,2.44793201 C13.0552606,2.44793201 14.7338379,4.12967777 14.7338379,6.19681596 L14.7338379,7.72709534 L7.25007096,7.72709534 L7.25007096,6.19681596 Z M17.5510714,18.5535846 L4.43286553,18.5535846 L4.43286553,9.16011383 L17.5510714,9.16011383 L17.5510714,18.5535846 Z" id="Shape"></path>
                        <polygon id="Shape" points="10.2767972 12.0096083 11.7071397 12.0096083 11.7071397 15.5484109 10.2767972 15.5484109"></polygon>
                    </g>
                </g>
            </g>
        </g>
    </g>
</svg>