<?xml version="1.0" encoding="UTF-8" standalone="no"?>
<svg width="16px" height="20px" viewBox="0 0 16 20" version="1.1" xmlns="http://www.w3.org/2000/svg" xmlns:xlink="http://www.w3.org/1999/xlink">
    <!-- Generator: Sketch 44.1 (41455) - http://www.bohemiancoding.com/sketch -->
    <title>验证码-2 copy</title>
    <desc>Created with Sketch.</desc>
    <defs></defs>
    <g id="Page-1" stroke="none" stroke-width="1" fill="none" fill-rule="evenodd">
        <g id="登录－验证" transform="translate(-500.000000, -594.000000)" fill-rule="nonzero" fill="#0D6FD1">
            <g id="Group-3" transform="translate(471.000000, 322.000000)">
                <g id="Content" transform="translate(0.000000, 150.000000)">
                    <g id="验证码-2-copy" transform="translate(26.000000, 121.000000)">
                        <path d="M4.23822937,7.17231627 L4.23822937,4.73666799 C4.30400326,4.73666799 4.30654387,4.74643942 4.36331009,4.74959396 L4.63887779,4.74959396 C4.69561836,4.75246639 4.70747458,4.76251992 4.77609705,4.76282769 C4.9697746,4.7631098 5.13861048,4.75246639 5.34050014,4.75018383 C5.40514485,4.74931185 5.40966152,4.73982253 5.46529858,4.73666799 C5.60280015,4.72917915 5.74199544,4.73810421 5.88373139,4.71681739 C6.05877771,4.69037556 6.23551774,4.6912219 6.40999947,4.66593421 C6.5841989,4.64062085 6.74513066,4.62338622 6.9122728,4.59117386 C7.91571596,4.39738684 8.1356466,4.33355203 9.0374392,3.82261704 C9.19893552,3.73118629 9.41096201,3.59000083 9.56144895,3.47643692 C9.7810973,3.31024584 10.005288,3.1480813 10.2144915,2.96809226 L10.3714712,2.83495987 C10.4056285,2.80677406 10.4126857,2.80190118 10.4451492,2.76968885 L10.9742403,2.27570637 L11.4282418,2.69321018 C11.5775995,2.83467777 11.7424834,2.9603213 11.906238,3.08627261 L12.2365702,3.33643123 C12.7323508,3.67773847 13.1386451,3.95662145 13.7002253,4.20506175 C14.4261247,4.52623629 15.2999705,4.65072571 16.0944667,4.71225231 C16.1622166,4.71743296 16.2904026,4.72030539 16.3635417,4.73151303 C16.4821297,4.74961965 16.8068161,4.7476192 16.9220166,4.74905541 C16.9866613,4.74992739 16.991178,4.75941672 17.0468151,4.76228915 C17.0939577,4.76487947 17.1490302,4.76228915 17.197302,4.76257125 L17.6230744,4.74992739 C17.6871546,4.74792694 17.6919535,4.73669366 17.760576,4.73669366 L17.7484374,8.53754526 C17.7475906,8.60625296 17.7368635,8.61258772 17.7351698,8.67670464 C17.7317823,8.78395945 17.7385572,8.88344326 17.7264187,8.97400201 C17.7159739,9.05019857 17.7128687,9.41392108 17.6925438,9.55164426 C17.6823813,9.62122396 17.6744771,9.75866501 17.6727834,9.82480802 C17.6691136,9.97979145 17.6397553,10.2172806 17.6177366,10.3805992 L17.5440585,10.9176939 C17.4071215,11.7512396 17.3029304,12.3375248 17.0578758,13.1515021 C16.8771836,13.7518674 16.6676721,14.3476162 16.3915655,14.9085881 C16.3565614,14.979604 16.3305906,15.0483373 16.2933025,15.1144547 C16.271566,15.1529762 16.2659202,15.1780074 16.2433369,15.216811 C16.2224473,15.2521779 16.2105911,15.2771835 16.1913953,15.316859 C16.1730463,15.3542264 16.1628839,15.3743591 16.1431235,15.4077256 C16.0098563,15.6311346 15.8952203,15.8637508 15.7523552,16.0811329 L15.5143323,16.4382385 C15.4717063,16.5040738 15.4341359,16.5529565 15.3869932,16.614201 L15.1294922,16.9514817 C14.9973542,17.1216993 14.8590057,17.2881726 14.7085188,17.4411555 L14.0952793,18.0403667 C13.9924996,18.1375423 13.8849465,18.222664 13.7751095,18.3138126 C13.4955898,18.5455568 13.193769,18.7491409 12.8829149,18.9351569 L12.6920602,19.0470025 C12.3764072,19.2413794 12.0232094,19.3983633 11.6739379,19.5277513 C11.6304651,19.5438574 11.6098578,19.5533467 11.5629718,19.5674268 C11.5209103,19.5803528 11.4960687,19.5935865 11.4517233,19.6073845 C10.8511869,19.7934262 10.9607416,19.7496984 10.3954917,19.5702992 L9.86724752,19.3560974 C9.78987403,19.3233209 9.7353918,19.2948529 9.66199604,19.2589218 C9.33533359,19.0999118 9.01968053,18.906689 8.71814202,18.7028485 C8.48124823,18.5426844 8.26018844,18.3632852 8.03743488,18.1847324 L7.27145011,17.4475159 C7.21781475,17.3931704 7.18589016,17.3480321 7.13338397,17.2945586 C7.03314488,17.1924844 6.95184497,17.0725858 6.85781628,16.9633305 L6.72426681,16.7931129 C6.53115386,16.5323109 6.34196732,16.2677901 6.17510746,15.9880351 C6.15026583,15.9460513 6.13840958,15.9368441 6.11610856,15.8951681 C5.95517683,15.5918181 5.79509196,15.3367866 5.64291125,15.0127396 C5.34984148,14.3882151 5.14571917,13.8157535 4.93479619,13.1578882 C4.85744835,12.9172189 4.80717482,12.6768573 4.74337698,12.4347518 C4.62450666,11.9833173 4.57623483,11.6115417 4.49180404,11.1733666 C4.47458428,11.0830899 4.46413949,10.9991224 4.45200095,10.9079738 L4.38114583,10.3806505 C4.35686876,10.2026619 4.27469633,9.29494571 4.2755432,9.12385609 L4.26368697,8.67675591 C4.26171092,8.612639 4.25126616,8.60630424 4.25041929,8.53759654 L4.23822937,7.17231627 Z M4.83933033,3.49969855 C4.35286533,3.49969855 3.97028354,3.4059596 3.55949828,3.68830491 C3.25146708,3.90022419 3.01118581,4.25445739 3.01118581,4.67308965 L3.01118581,8.19246792 C3.01118581,8.42018561 3.02388893,8.6134084 3.02360662,8.83020055 C3.02360662,9.0101896 3.03433369,9.2707095 3.05776389,9.44580003 L3.08655762,9.90095328 C3.0998253,10.1430588 3.13934611,10.3888831 3.16249399,10.6399137 L3.24014979,11.2112212 C3.2985841,11.5683269 3.35196283,11.9599531 3.43693254,12.3113138 C3.45725753,12.3952814 3.47560645,12.4844039 3.49423769,12.5718081 C3.66448504,13.3685507 4.04142102,14.5620745 4.37147095,15.2616415 L4.68486568,15.9117359 C4.86104115,16.2702778 5.06688288,16.612457 5.28483749,16.9456855 C5.37434952,17.0822546 5.45169735,17.1984345 5.54741979,17.3283866 C5.71597339,17.5566942 5.91699052,17.8479646 6.11295205,18.0532414 L6.41985409,18.3910863 C6.55142754,18.525065 6.67481452,18.6674046 6.81457442,18.7924839 C6.84986084,18.8243885 6.86679832,18.8324416 6.90211039,18.8692447 C7.00940677,18.9802439 7.13618127,19.0753934 7.25192073,19.1757492 C7.48316868,19.3761531 7.72822325,19.5610407 7.98177221,19.7332588 C8.0481107,19.778115 8.10995814,19.8172263 8.17968411,19.863211 C8.42250601,20.0227852 8.67687619,20.1774865 8.93691787,20.3036943 L9.2048637,20.4388271 C9.2799532,20.4773486 9.34885796,20.5081247 9.42902871,20.5420554 L10.1182302,20.8091665 C10.3302567,20.8816186 10.6894083,20.9954903 10.9115973,20.9954903 C11.1868827,20.9954903 11.3128103,20.9537886 11.5702857,20.8885176 C11.8975127,20.8054221 12.2046971,20.6803428 12.5107522,20.5454921 C12.8052334,20.415822 13.0943511,20.271482 13.3744355,20.1116 C13.7660506,19.8884731 14.1841754,19.6204899 14.5331645,19.3280911 C14.7070817,19.1820327 14.8877738,19.0440018 15.0529399,18.8884541 C15.209355,18.7409595 15.6054868,18.3628492 15.7017481,18.2357694 C15.733647,18.1937857 15.7443741,18.1845785 15.7794039,18.1489295 C16.0281539,17.8941801 16.4863898,17.267373 16.6888184,16.9582781 C16.7774835,16.8228631 16.8652761,16.6963476 16.9426497,16.5537259 L17.5059236,15.5079788 C17.5259663,15.4636868 17.534435,15.436373 17.5558892,15.3929787 L17.805486,14.8182089 C17.8681547,14.6580448 17.926897,14.5062415 17.9842021,14.3498219 L18.1485214,13.8670727 C18.2493251,13.524637 18.3520791,13.1942553 18.4367922,12.846921 C18.4794182,12.6712407 18.5147303,12.5056138 18.5567917,12.3190079 C18.5768344,12.2301674 18.5917958,12.1416091 18.6118385,12.0564875 C18.6716843,11.8023024 18.8134202,10.9259265 18.8362858,10.6398368 C18.8444723,10.5348902 18.8535056,10.4566932 18.8679024,10.3531572 L18.9249253,9.7482011 C18.9511784,9.18981957 18.987594,8.76139025 18.987594,8.16707762 L18.9875939,4.67308965 C18.9875939,4.08393201 18.471206,3.52442203 17.8977696,3.48759326 C17.8311488,3.48328461 17.7904732,3.46889677 17.7238525,3.47466729 C17.2181916,3.51952351 16.6498365,3.48874737 16.1571611,3.44966168 C15.836709,3.42406619 15.5086351,3.39359784 15.1989102,3.32860892 C15.0439066,3.29639657 14.9103571,3.27741797 14.7609993,3.23917862 C14.6048665,3.19891318 14.491642,3.16039173 14.3501884,3.10922642 C14.2186149,3.0617799 14.1000269,2.99997118 13.9792062,2.93872667 C13.7505245,2.82285456 13.5249224,2.67648842 13.3131782,2.53330251 C13.0474907,2.35331346 12.7953789,2.15175549 12.5449351,1.9513516 C12.2702143,1.73168699 11.7422524,1.23052343 11.482493,1.12067832 C11.2789353,1.03442822 11.1448212,1.0131414 10.9115972,1.0131414 C10.6687753,1.0131414 10.4011375,1.10544414 10.2387943,1.27163521 C10.0380594,1.47693762 9.82487812,1.66526188 9.61256935,1.85789476 L9.32345166,2.09884619 C9.06905582,2.29178687 8.82315438,2.4967815 8.54928043,2.66240835 C8.48689404,2.70008346 8.43887885,2.72739727 8.37536329,2.76563659 C7.81265394,3.10463561 7.42614573,3.20440155 6.80415521,3.33322529 C6.26402919,3.4450709 5.35376785,3.49969855 4.83933033,3.49969855 L4.83933033,3.49969855 Z" id="Shape"></path>
                        <path d="M8.50976183,12.0254397 C8.49159502,11.9733828 8.57334567,11.9275706 8.5415537,12.0080874 C8.54041831,12.0099663 8.54268919,12.1214852 8.50976183,12.0254397 L8.50976183,12.0254397 Z M6.11636514,6.47103095 L6.11636514,7.09583762 C6.11636514,7.14587446 6.2408813,7.24879496 6.29169374,7.24879496 L8.20737427,7.24879496 L8.09471436,8.71548256 C8.07890603,9.05391737 8.04503107,9.62896927 7.99786275,9.99412802 C7.96991591,10.2120743 8.12266119,10.1562926 7.33070561,10.1562926 C7.33070561,9.94668148 7.34482016,9.76035769 7.37192015,9.54787419 C7.41990969,9.17178992 7.42132113,8.6973503 7.47385299,8.32557469 L7.51873733,7.70794912 C7.51873733,7.67832709 7.42753156,7.58717847 7.4032545,7.57050807 C7.35046601,7.53398707 6.71998107,7.55499178 6.62964785,7.55499178 C6.60537078,7.66165669 6.5884333,7.89111837 6.58024687,8.00209195 C6.55709898,8.31521338 6.5401615,8.60676589 6.50089733,8.91557867 L6.33093226,10.7321908 C6.32669788,10.7750466 6.33121455,10.8112598 6.32500414,10.8549619 C6.3097604,10.9633708 6.33347288,10.935185 6.3983999,11.0168444 C6.41928945,11.0430041 6.43058112,11.0746265 6.46699669,11.0746265 L8.5453027,11.0746265 C8.5453027,11.1482328 8.53231729,11.1712379 8.53259957,11.2528972 C8.53288186,11.3167321 8.53259957,11.3805669 8.53288186,11.4444017 C8.53288186,11.5835611 8.52017873,11.6816087 8.52017873,11.8268207 C8.48122252,11.8000711 8.43405419,11.7555227 8.39509801,11.7238746 C8.3555772,11.6913801 8.36856261,11.6908159 8.32960642,11.6959965 C8.17883717,11.7164114 7.38321179,11.930921 7.09635243,11.9832404 L6.00201146,12.2207294 C5.96418443,12.2391182 5.99636564,12.2152667 5.96728963,12.2489153 C5.94385944,12.275947 5.94301256,12.2862826 5.92296988,12.3187771 C5.90744386,12.3437827 5.88655431,12.3656337 5.886272,12.3949736 C5.88598972,12.4743247 5.94583549,12.7046328 5.9630809,12.7862921 C5.97804236,12.8578979 5.99018087,12.9222969 6.0023194,12.9887221 C6.02405582,13.105184 6.0675287,13.1218544 6.16071052,13.1727376 C6.20390109,13.196307 6.19176258,13.19028 6.24570588,13.1713014 C6.39252306,13.1198283 6.54780898,13.0841793 6.70168344,13.0479405 C6.73019486,13.0410415 6.75277818,13.0327063 6.789784,13.0229348 C6.97273447,12.974642 8.34207855,12.620973 8.49538844,12.6175107 C8.49538844,12.822531 8.45784369,13.4861412 8.43497808,13.6526144 C8.3539348,14.2429005 8.03263589,14.1971979 7.59387812,14.1733208 L7.29318648,14.1606769 C7.09696833,14.1615489 6.93010846,14.109486 6.72991255,14.109486 C6.69039175,14.109486 6.67740637,14.1563426 6.65169219,14.1830922 C6.5311281,14.3078894 6.59325788,14.2730867 6.63023804,14.5551499 L6.71749174,15.1169938 C6.80305169,15.1169938 6.83240998,15.1302275 6.91737969,15.1299197 C6.99277715,15.1296376 7.06814894,15.1290478 7.14354641,15.1293555 C7.2240251,15.1293555 7.25535945,15.1431535 7.34315208,15.1425892 C7.95385096,15.1391269 8.51373738,15.2529986 8.97423157,14.7886381 C9.05132278,14.7110054 9.10382897,14.6299103 9.1614164,14.5330168 C9.18032993,14.5013943 9.18287055,14.4901867 9.19896115,14.456256 C9.21335802,14.4254799 9.22069758,14.4203249 9.23565903,14.3791874 C9.24525695,14.3527456 9.25513713,14.3262781 9.26614651,14.2955277 L9.29663398,14.2115602 C9.29663398,14.3432563 9.29748085,14.4752346 9.2963517,14.6069051 C9.29578711,14.7109797 9.28054337,14.7150063 9.33671937,14.7699417 C9.36099644,14.7941009 9.41124429,14.8619623 9.44683867,14.8619623 L15.1435811,14.8619622 C15.1746331,14.8619622 15.294068,14.7403452 15.294068,14.7090049 L15.294068,14.1221555 C15.294068,14.0574486 15.1963696,13.944449 15.1071655,13.9427307 L13.8284626,13.9441669 C13.7047933,13.9458852 13.6745881,13.9942037 13.841448,13.6120668 C13.9360413,13.3952747 14.1576657,12.7391276 14.2404027,12.5136925 C14.3364074,12.2520441 14.4281521,11.9343319 14.5266975,11.6830192 C14.5642422,11.5869977 14.5854141,11.4941051 14.6212907,11.3969295 C14.6435917,11.3371212 14.8056527,10.8563725 14.8056527,10.8322132 C14.8056527,10.8115163 14.7641558,10.7341656 14.7520173,10.708288 C14.7161663,10.6329634 14.6707174,10.6323736 14.5007267,10.5817725 C14.4453976,10.5651021 14.4148844,10.5524326 14.3575793,10.5363521 C14.2643975,10.5101924 14.1715236,10.4742356 14.0721314,10.443203 C13.9990179,10.4204799 14.0018152,10.4282509 13.9422517,10.4627458 C13.8996257,10.4877514 13.8547157,10.4972407 13.8363668,10.5464056 L13.4433402,11.8423113 C13.3645553,12.1315556 13.2426054,12.4124904 13.1559163,12.6968361 C13.1372851,12.7572086 13.1262757,12.7822399 13.1073622,12.8388679 C13.0435643,13.0320907 12.9692961,13.2123619 12.9040867,13.3969673 L12.6898019,13.9438591 L9.68483596,13.9438591 C9.32119335,13.9438591 9.48664176,13.928907 9.33417876,14.0329816 C9.33671937,13.9113646 9.36777144,13.827115 9.37115892,13.5479242 L9.38386204,13.1781491 C9.38555579,13.1151862 9.39515371,13.1143143 9.39712973,13.0513514 L9.4214068,12.2983109 C9.4214068,12.2103168 9.4343922,12.1467898 9.4343922,12.0435615 C9.43410992,11.8609822 9.44399012,11.7183605 9.44624843,11.5329086 C9.44822448,11.3805155 9.47278382,11.1953458 9.47193695,11.0363358 C9.47137236,10.9518041 9.50524732,10.3284336 9.4835109,10.2858856 C9.46883175,10.2576998 9.37847285,10.1562156 9.34657392,10.1562156 L8.92080155,10.1562156 L9.00861984,8.91955386 C9.01200732,8.84853794 9.03007398,8.74790003 9.03346147,8.67688411 C9.04136562,8.50869258 9.05293956,8.33414065 9.06931248,8.17772098 C9.10234056,7.85713634 9.10008223,7.51670108 9.14299052,7.19437246 C9.15230613,7.12307444 9.1568228,7.0109211 9.15879885,6.94277762 C9.16162177,6.84732033 9.22005608,6.52040093 9.1864634,6.45628401 C9.17347799,6.4312784 9.07436808,6.33064048 9.04613893,6.33064048 L6.25414899,6.3306405 C6.22335358,6.33071744 6.11636514,6.43969058 6.11636514,6.47103095 L6.11636514,6.47103095 Z" id="Shape"></path>
                        <path d="M12.2764247,7.17231627 C12.2950559,7.25310361 12.6683221,7.76806514 12.7538564,7.88480922 C12.7897074,7.93340985 12.8218886,7.96993085 12.8597413,8.01937784 L13.0740261,8.28564263 C13.1112886,8.33049885 13.1429052,8.37735549 13.1810402,8.41905714 L14.0043301,9.27648003 L10.6111879,9.27648003 C10.6504264,9.21695386 10.7808707,9.09677308 10.8398952,9.03755469 L11.4974545,8.2790514 C11.7007299,8.02573825 12.0449201,7.54211707 12.2160143,7.23848494 C12.2414205,7.19329534 12.2306935,7.18496013 12.2764247,7.17231627 L12.2764247,7.17231627 Z M9.05861106,9.26378486 C9.05861106,9.33336456 9.05268293,9.35665183 9.04703712,9.40668867 C9.03828609,9.48547556 9.05804647,9.48691178 9.15574495,9.59847524 L9.36212559,9.86012361 C9.49002924,10.0176974 9.45220221,10.0421387 9.5535448,10.0605275 C9.57358749,10.0642719 9.59673537,10.0677086 9.61875411,10.0717351 C9.73310776,10.0918678 9.74383483,10.0334958 9.90307283,9.90698028 C9.94682799,9.87217759 10.2085634,9.63153393 10.2480842,9.62089053 C10.2480842,9.74856015 10.2472373,9.8765119 10.2472373,10.0041559 C10.2472373,10.098177 10.2576821,10.084379 10.3073654,10.1341081 C10.3409581,10.1680388 10.3635414,10.2074322 10.4234128,10.2074322 L14.1796844,10.2074322 C14.2129947,10.2074322 14.2587516,10.1571132 14.2807703,10.1317999 C14.3228317,10.083507 14.3047651,10.0900982 14.3423098,10.0797626 L14.3423098,9.56967393 C14.3781609,9.59411531 14.8177655,9.96501892 14.8431717,9.96501892 C14.8973717,9.96501892 15.0012805,9.95034897 15.0326149,9.92849792 C15.054069,9.91382797 15.1128113,9.81980689 15.1345477,9.78990276 L15.482382,9.32785053 C15.5091997,9.29391985 15.5213382,9.29563817 15.5171038,9.24216466 C15.5139986,9.20105288 15.4925445,9.09120777 15.4640331,9.06504805 L15.3118523,8.97764383 C15.2082258,8.91583511 15.1255144,8.86005338 15.0283805,8.79450023 C14.8135311,8.64844185 14.6912733,8.5512406 14.5015478,8.38763982 C14.4569458,8.34940048 14.4221983,8.31977847 14.3781608,8.28356521 L14.2660655,8.18092684 C14.2640895,8.1792085 14.2615488,8.1766182 14.2595728,8.17489985 C14.2578791,8.1728994 14.2550562,8.17030907 14.2530801,8.16856509 L13.7951265,7.69158647 C13.3134605,7.10473704 13.2228193,6.95349802 12.8295361,6.31576539 C12.7770299,6.23036163 12.7764653,6.2441596 12.8673631,6.09092015 C12.8713152,6.08373905 12.9150704,6.01272313 12.9150704,6.01213326 C12.9150704,5.94542602 12.8323333,5.86204835 12.8148313,5.7953411 L11.888197,5.7953411 L11.7012945,6.19127596 C11.6761706,6.23669639 11.6595154,6.27780817 11.6338269,6.32669093 L10.9565072,7.40924118 L10.5129505,7.96503238 L9.72522929,8.7439505 C9.63487039,8.83020055 9.17437618,9.20141193 9.05861106,9.26378486 L9.05861106,9.26378486 Z" id="Shape"></path>
                        <path d="M12.9650616,13.0128813 C12.9385262,12.8964193 12.9105794,12.7952171 12.8845829,12.6738823 L12.3543628,10.6255259 C12.3382722,10.5611268 12.3230284,10.5251701 12.3063732,10.4573087 C12.2931055,10.4020912 12.2676993,10.3310753 12.2640295,10.2839365 C12.1985379,10.2853728 12.0649884,10.3305111 11.9791462,10.3509259 C11.9322858,10.3618514 11.9020807,10.3765214 11.8413624,10.3891653 L11.5643832,10.4639256 C11.4393025,10.5041911 11.4771295,10.4774415 11.4491826,10.5251701 C11.3653164,10.668356 11.3709623,10.6502494 11.4071212,10.7741746 C11.4347858,10.869914 11.4641441,10.9561897 11.4878566,11.0490567 L11.8831414,12.6229991 C11.8955623,12.6799349 11.9009258,12.7184564 11.9147581,12.7690575 L11.9768622,13.0629182 C11.9926705,13.1491683 11.9734747,13.1373964 12.0378371,13.1793802 C12.1739272,13.2682206 12.1361002,13.2693747 12.4159022,13.1802521 L12.9650616,13.0128813 Z" id="Shape"></path>
                        <path d="M9.78479275,11.087296 C9.78479275,11.1324343 9.82092604,11.2074768 9.83221771,11.2431258 L10.1882384,12.3725327 C10.258529,12.6304366 10.4107097,13.1117752 10.4660645,13.3648063 C10.4841311,13.4476197 10.4796145,13.484987 10.5253457,13.5212259 L10.6614358,13.599423 C10.7015211,13.599423 11.1591924,13.4323599 11.2639482,13.396993 C11.3192773,13.3782965 11.4195164,13.3363127 11.4751278,13.331722 C11.4751278,13.2552433 11.4516976,13.2233131 11.4350424,13.1557594 C11.3633404,12.8662074 11.1284227,12.1367619 11.0262075,11.8250767 L10.6487327,10.6792815 C10.5555508,10.6813076 10.390667,10.7537597 10.2884776,10.783946 L9.92483496,10.8980998 C9.86273086,10.9150523 9.86216627,10.9150523 9.83447606,10.9719881 C9.82487814,10.9915566 9.78479275,11.0671889 9.78479275,11.087296 L9.78479275,11.087296 Z" id="Shape"></path>
                    </g>
                </g>
            </g>
        </g>
    </g>
</svg>